HIERARCHY
ROOT Hips
{
	OFFSET 0.00000 0.00000 0.00000
	CHANNELS 6 Xposition Yposition Zposition Yrotation Zrotation Xrotation 
	JOINT Lumbar
	{
		OFFSET 0 0 0
		CHANNELS 3 Zrotation Xrotation Yrotation
		JOINT Neck
		{
			OFFSET 0.00 0.2701 0.00
			CHANNELS 3 Zrotation Xrotation Yrotation
			End Site
			{
				OFFSET 0.00 0.1379 0.00
			}
		}
		JOINT RightShoulder
		{
			OFFSET 0.0119 0.2289 0.1181
			CHANNELS 3 Zrotation Xrotation Yrotation
			JOINT RightElbow
			{
				OFFSET 0.00 -0.1475 0.00
				CHANNELS 2 Zrotation Yrotation
				JOINT RightWrist
				{
					OFFSET 0.00 -0.1605 0.00
					CHANNELS 2 Zrotation Xrotation
					End Site
					{
						OFFSET 0.0040 -0.1068 0.0006
					}
				}
			}
		}
		JOINT LeftShoulder
		{
			OFFSET 0.0119 0.2289 -0.1181
			CHANNELS 3 Zrotation Xrotation Yrotation
			JOINT LeftElbow
			{
				OFFSET 0.00 -0.1475 0.00
				CHANNELS 2 Zrotation Yrotation
				JOINT LeftWrist
				{
					OFFSET 0.00 -0.1605 0.00
					CHANNELS 2 Zrotation Xrotation
					End Site
					{
						OFFSET 0.0040 -0.1068 -0.0006
					}
				}
			}
		}
	}
	JOINT RightHip
	{
		OFFSET 0.0316 -0.0424 0.0458
		CHANNELS 3 Zrotation Xrotation Yrotation
		JOINT RightKnee
		{
			OFFSET 0.00 -0.2438 0.00
			CHANNELS 1 Zrotation
			JOINT RightAnkle
			{
				OFFSET 0.00 -0.2449 0.00
				CHANNELS 3 Zrotation Xrotation Yrotation
				End Site
				{
					OFFSET 0.1237 -0.0542 0.0051
				}
			}
		}
	}
	JOINT LeftHip
	{
		OFFSET 0.0316 -0.0424 -0.0458
		CHANNELS 3 Zrotation Xrotation Yrotation
		JOINT LeftKnee
		{
			OFFSET 0.00 -0.2438 0.00
			CHANNELS 1 Zrotation
			JOINT LeftAnkle
			{
				OFFSET 0.00 -0.2449 0.00
				CHANNELS 3 Zrotation Xrotation Yrotation
				End Site
				{
					OFFSET 0.1237 -0.0542 -0.0051
				}
			}
		}
	}
}
MOTION
Frames: 11
Frame Time: 0.02
-0.00209 -0.00092 -0.00252 22.44732 -22.22779 -9.52884 41.46304 1.08152 -3.76501 -13.72719 -1.09625 -1.18873 -27.00077 -5.96654 -16.98101 29.07729 127.9208 13.47093 9.07999 -32.04741 13.26386 4.84722 32.38036 -95.14826 14.81931 -0.01029 37.796 -3.30431 -7.49121 -18.38234 -8.58453 -3.06814 -3.81912 38.40058 4.89919 4.34771 -27.19805 -8.56569 4.14126 4.34954
-0.00361 -0.00106 -0.0035 22.48147 -22.11737 -9.6714 41.21683 1.08068 -4.04715 -13.59878 -1.20409 -1.19082 -26.49992 -6.35353 -15.79761 29.73966 124.02343 12.91593 8.13818 -30.96875 13.63523 4.01534 32.96491 -95.01917 14.77568 0.01351 38.14611 -3.45293 -7.83624 -19.07468 -8.64787 -3.05252 -3.81461 38.3265 4.97752 4.95339 -27.16677 -8.48731 4.08212 4.31579
-0.00512 -0.00119 -0.00448 22.51572 -22.00722 -9.81371 40.9712 1.07978 -4.3289 -13.47045 -1.31167 -1.1929 -26 -6.7393 -14.6174 30.40059 120.14063 12.36328 7.19987 -29.89224 14.00613 3.1852 33.54829 -94.89028 14.73195 0.03726 38.49586 -3.60086 -8.18078 -19.76603 -8.71092 -3.03694 -3.81011 38.25255 5.05565 5.55736 -27.13552 -8.40914 4.02312 4.28213
-0.00664 -0.00133 -0.00546 22.54979 -21.89712 -9.95586 40.72571 1.07893 -4.61024 -13.3424 -1.41919 -1.19497 -25.50059 -7.12509 -13.43758 31.06103 116.25587 11.81013 6.2611 -28.8167 14.37646 2.35573 34.13115 -94.76156 14.68841 0.06099 38.84501 -3.749 -8.52481 -20.45647 -8.77405 -3.02137 -3.80562 38.17868 5.13374 6.1612 -27.10432 -8.331 3.96415 4.24849
-0.00816 -0.00147 -0.00644 22.58369 -21.78678 -10.09818 40.47974 1.07818 -4.89182 -13.21434 -1.52694 -1.19705 -25.00052 -7.51211 -12.25472 31.72267 112.35506 11.25429 5.31851 -27.73948 14.74699 1.52489 34.71492 -94.6327 14.64508 0.08479 39.19424 -3.89786 -8.86917 -21.14731 -8.83748 -3.00574 -3.80111 38.1047 5.21201 6.7667 -27.07312 -8.25268 3.90504 4.21476
-0.00967 -0.00161 -0.00742 22.61869 -21.67707 -10.24048 40.23482 1.07694 -5.17388 -13.08544 -1.63412 -1.19913 -24.50095 -7.89524 -11.08013 32.38204 108.51003 10.7083 4.38917 -26.66456 15.11862 0.69628 35.29741 -94.50377 14.60052 0.10841 39.54505 -4.04382 -9.21409 -21.8396 -8.89974 -2.99027 -3.79663 38.03081 5.28985 7.3674 -27.04176 -8.17481 3.84627 4.18124
-0.0112 -0.00174 -0.0084 22.65139 -21.56617 -10.38265 39.98803 1.07671 -5.45465 -12.95845 -1.74236 -1.20121 -24.00085 -8.28573 -9.89033 33.0453 104.55865 10.14343 3.43456 -25.58615 15.48766 -0.13601 35.88188 -94.37512 14.55845 0.13238 39.89233 -4.19554 -9.55734 -22.5286 -8.96428 -2.97454 -3.79212 37.95683 5.36847 7.9771 -27.01076 -8.09612 3.78689 4.14735
-0.01271 -0.00188 -0.00938 22.68632 -21.45644 -10.52495 39.74304 1.07551 -5.73663 -12.82956 -1.8496 -1.20329 -23.50137 -8.6695 -8.7143 33.70489 100.70234 9.59535 2.50255 -24.51102 15.85906 -0.96469 36.46445 -94.24624 14.51411 0.156 40.2428 -4.34179 -9.90244 -23.21994 -9.02673 -2.95897 -3.7876 37.88295 5.44638 8.57847 -26.97943 -8.01818 3.72806 4.11379
-0.0142 -0.00202 -0.01035 22.7236 -21.34779 -10.66744 39.49981 1.07324 -6.02023 -12.69882 -1.95576 -1.20536 -23.00184 -9.04494 -7.55556 34.3607 96.973 9.07013 1.60068 -23.43898 16.23371 -1.7903 37.04536 -94.11685 14.46685 0.17928 40.59767 -4.48202 -10.24883 -23.91737 -9.08661 -2.94388 -3.78321 37.80908 5.52343 9.17004 -26.94767 -7.94117 3.66993 4.08063
-0.01581 -0.00217 -0.01137 22.74621 -21.23186 -10.80898 39.2451 1.07748 -6.29491 -12.58015 -2.06855 -1.20745 -22.50014 -9.468 -6.29864 35.04041 92.54536 8.42039 0.53296 -22.34635 16.59077 -2.63766 37.63782 -93.98973 14.43594 0.20481 40.92876 -4.6589 -10.58489 -24.58952 -9.16124 -2.92691 -3.77851 37.7348 5.60543 9.8192 -26.91829 -7.85882 3.60784 4.04518
-0.01717 -0.00228 -0.01228 22.80048 -21.13198 -10.95241 39.01553 1.06779 -6.58808 -12.43511 -2.16709 -1.20952 -22.00471 -9.79076 -5.24818 35.66821 89.57043 8.02889 -0.1897 -21.2992 16.98412 -3.43638 38.20453 -93.85827 14.37087 0.2254 41.30896 -4.75717 -10.94451 -25.30859 -9.20478 -2.91335 -3.77418 37.66162 5.67697 10.34602 -26.88398 -7.78776 3.55408 4.01456
